<svg width="20px" height="13px" viewBox="258 234 20 13" version="1.1" xmlns="http://www.w3.org/2000/svg" xmlns:xlink="http://www.w3.org/1999/xlink">
    <defs>
        <path d="M9.91352,1.599 C14.01272,1.599 17.34864,3.3921875 17.34864,5.5956875 C17.34864,6.99725 16.00288,8.2745 13.75008,9.010625 L12.39192,9.4550625 L12.39192,10.3926875 L10.4984,9.5931875 L9.91352,9.5931875 C5.81304,9.5931875 2.4784,7.8 2.4784,5.5956875 C2.4784,3.3921875 5.81304,1.599 9.91352,1.599 L9.91352,1.599 L9.91352,1.599 Z M9.91352,0 C4.4388,0 0,2.50575 0,5.5956875 C0,8.6864375 4.4388,11.1921875 9.91352,11.1921875 L12.8876,12.631125 C13.70416,13.026 14.87024,12.6498125 14.87024,11.9916875 L14.87024,10.437375 C17.83072,9.468875 19.82704,7.6659375 19.82704,5.5956875 C19.82704,2.50575 15.38824,0 9.91352,0 L9.91352,0 L9.91352,0 Z" id="path-1"></path>
    </defs>
    <g id="Page-1" stroke="none" stroke-width="1" fill="none" fill-rule="evenodd" transform="translate(258.000000, 234.000000)">
        <g id="Fill-1-Clipped">
            <mask id="mask-2" fill="white">
                <use xlink:href="#path-1"></use>
            </mask>
            <g id="path-1"></g>
            <polygon id="Fill-1" fill="#333743" mask="url(#mask-2)" points="-6.19592 16.8547438 26.02296 16.8547438 26.02296 -4.0625 -6.19592 -4.0625"></polygon>
        </g>
    </g>
</svg>
